<svg id="svg4209" xmlns="http://www.w3.org/2000/svg" viewBox="0 0 159.77 159.77"><g id="layer1"><g id="g3298"><g id="g3276"><path id="path3230-2-9" d="M158.27,79.89A78.39,78.39,0,1,1,79.89,1.5,78.38,78.38,0,0,1,158.27,79.89Z" style="fill:#82104e;stroke:#82104e;stroke-linecap:round;stroke-linejoin:round;stroke-width:3px"/><g id="g4196"><g id="g4054"><g id="text4061" style="isolation:isolate"><text transform="translate(44.01 55.16)" style="isolation:isolate;font-size:41.030006408691406px;fill:#fff;font-family:Arial-BoldMT, Arial;font-weight:700">E</text></g><g id="text4061-7" style="isolation:isolate"><text transform="translate(68.34 55.37)" style="isolation:isolate;font-size:41.030006408691406px;fill:#fff;font-family:Arial-BoldMT, Arial;font-weight:700">-</text></g><g id="text4061-76" style="isolation:isolate"><text transform="translate(81.33 55.16)" style="isolation:isolate;font-size:41.030006408691406px;fill:#fff;font-family:Arial-BoldMT, Arial;font-weight:700">X</text></g></g><path id="path4062" d="M105,134.17l-.07-5.17,24.74-14.7-.31-30.52L104.78,69.86l-.07-5.65H101v5.54L79.71,82.12,58.07,69.6l.09-5.3-3.6-.06v5.29L30,83.61l-.21,31.08L54.54,129v5.05l3.73.13,0-5.22,21.15-12.46,21.56,12.28-.16,5.48Z" style="fill:#fff;stroke:#fff;stroke-linecap:round;stroke-linejoin:round;stroke-width:0.20515003510043073px"/><path id="path4074" d="M56.55,76.35l19.71,11.4,0,22.79-20,11.95-20-11.55.09-23.43Z" style="fill:#82104e;stroke:#82104e;stroke-miterlimit:16.412002563476562;stroke-width:0.20515003510043073px"/><path id="path3266" d="M40.15,88.91l2,3.3,15.22-8.85L55.5,80.11Z" style="fill:#fff;stroke:#fff;stroke-miterlimit:16.412002563476562;stroke-width:0.20515003510043073px"/><path id="path4074-5" d="M103.43,75.12l19.71,11.4.06,22.79-20,12-20-11.55.09-23.43Z" style="fill:#82104e;stroke:#82104e;stroke-miterlimit:16.412002563476562;stroke-width:0.20515003510043073px"/><path id="path3266-0" d="M86.7,88.87l2,3.3,15.22-8.85-1.83-3.25Z" style="fill:#fff;stroke:#fff;stroke-miterlimit:16.412002563476562;stroke-width:0.20515003510043073px"/><path id="path4054" d="M116.25,90.48l3.63.08-.07,18.4-16.08,9.53-1.82-3.34,14.26-8.08Z" style="fill:#fff;stroke:#fff;stroke-miterlimit:16.412002563476562;stroke-width:0.20515003510043073px"/><path id="path4054-2" d="M69.5,90.45l4,.07-.07,18.41-16.08,9.53-2.11-3.13,14.26-8.15Z" style="fill:#fff;stroke:#fff;stroke-miterlimit:16.412002563476562;stroke-width:0.20515003510043073px"/><path id="path4064" d="M39.4,86.49a5.66,5.66,0,1,1-5.66-5.65A5.65,5.65,0,0,1,39.4,86.49Z" style="fill:#fff;stroke:#82104e;stroke-linecap:round;stroke-linejoin:round;stroke-width:0.778596818447113px"/><path id="path4064-8" d="M39.14,112.07a5.66,5.66,0,1,1-5.66-5.65A5.65,5.65,0,0,1,39.14,112.07Z" style="fill:#fff;stroke:#82104e;stroke-linecap:round;stroke-linejoin:round;stroke-width:0.778596818447113px"/><path id="path4064-2" d="M85.37,113.31a5.65,5.65,0,1,1-5.65-5.65A5.65,5.65,0,0,1,85.37,113.31Z" style="fill:#fff;stroke:#82104e;stroke-linecap:round;stroke-linejoin:round;stroke-width:0.778596818447113px"/><path id="path4064-0" d="M131.94,112.77a5.66,5.66,0,1,1-5.65-5.65A5.65,5.65,0,0,1,131.94,112.77Z" style="fill:#fff;stroke:#82104e;stroke-linecap:round;stroke-linejoin:round;stroke-width:0.778596818447113px"/></g></g></g></g></svg>