<svg id="Layer_1" data-name="Layer 1" xmlns="http://www.w3.org/2000/svg" viewBox="0 0 24 24"
  stroke-width="1.5" width="24" height="24" color="#000000">
  <defs>
    <style>.cls-637ba0fee657d189799a2803-1{fill:none;stroke:currentColor;stroke-miterlimit:10;}</style>
  </defs>
  <polyline class="cls-637ba0fee657d189799a2803-1" points="12 23.5 12 17.75 12 14.88"></polyline>
  <line class="cls-637ba0fee657d189799a2803-1" x1="12" y1="9.13" x2="12" y2="0.5"></line>
  <polyline class="cls-637ba0fee657d189799a2803-1" points="15.35 2.9 12 6.25 8.65 2.9"></polyline>
  <polyline class="cls-637ba0fee657d189799a2803-1" points="12 23.5 12 17.75 12 14.88"></polyline>
  <line class="cls-637ba0fee657d189799a2803-1" x1="12" y1="9.13" x2="12" y2="0.5"></line>
  <polyline class="cls-637ba0fee657d189799a2803-1" points="8.65 21.1 12 17.75 15.35 21.1"></polyline>
  <polyline class="cls-637ba0fee657d189799a2803-1" points="21.96 17.75 16.98 14.88 14.49 13.44"></polyline>
  <line class="cls-637ba0fee657d189799a2803-1" x1="9.51" y1="10.56" x2="2.04" y2="6.25"></line>
  <polyline class="cls-637ba0fee657d189799a2803-1" points="5.79 4.54 7.02 9.13 2.44 10.35"></polyline>
  <polyline class="cls-637ba0fee657d189799a2803-1" points="21.96 17.75 16.98 14.88 14.49 13.44"></polyline>
  <line class="cls-637ba0fee657d189799a2803-1" x1="9.51" y1="10.56" x2="2.04" y2="6.25"></line>
  <polyline class="cls-637ba0fee657d189799a2803-1" points="18.21 19.46 16.98 14.88 21.56 13.65"></polyline>
  <line class="cls-637ba0fee657d189799a2803-1" x1="9.51" y1="13.44" x2="2.04" y2="17.75"></line>
  <polyline class="cls-637ba0fee657d189799a2803-1" points="14.49 10.56 16.98 9.13 21.96 6.25"></polyline>
  <polyline class="cls-637ba0fee657d189799a2803-1" points="18.21 4.54 16.98 9.13 21.56 10.35"></polyline>
  <line class="cls-637ba0fee657d189799a2803-1" x1="9.51" y1="13.44" x2="2.04" y2="17.75"></line>
  <polyline class="cls-637ba0fee657d189799a2803-1" points="14.49 10.56 16.98 9.13 21.96 6.25"></polyline>
  <polyline class="cls-637ba0fee657d189799a2803-1" points="5.79 19.46 7.02 14.88 2.44 13.65"></polyline>
  <path class="cls-637ba0fee657d189799a2803-1"
    d="M14.88,12a2.89,2.89,0,1,1-.39-1.44A2.9,2.9,0,0,1,14.88,12Z"></path>
</svg>