<svg id="Layer_1" data-name="Layer 1" xmlns="http://www.w3.org/2000/svg" viewBox="0 0 24 24"
  stroke-width="1.5" width="24" height="24" color="#000000">
  <defs>
    <style>.cls-637a2287b95f902aafde8fb5-1{fill:none;stroke:currentColor;stroke-miterlimit:10;}</style>
  </defs>
  <path class="cls-637a2287b95f902aafde8fb5-1"
    d="M6.27,22.5h7.57a4.77,4.77,0,0,0,3.38-1.4l4.71-4.71a2,2,0,0,0-2.86-2.87l-5.16,5.16H13a1.91,1.91,0,0,0,1.88-2.23,2,2,0,0,0-2-1.59H9.14l-.93-.46a4.66,4.66,0,0,0-5,.55A4.57,4.57,0,0,0,1.5,18.57v.11"></path>
  <line class="cls-637a2287b95f902aafde8fb5-1" x1="12.96" y1="18.68" x2="8.18" y2="18.68"></line>
  <path class="cls-637a2287b95f902aafde8fb5-1"
    d="M5.32,1.5H7.23A4.77,4.77,0,0,1,12,6.27v0a0,0,0,0,1,0,0H10.09A4.77,4.77,0,0,1,5.32,1.5v0a0,0,0,0,1,0,0Z"></path>
  <path class="cls-637a2287b95f902aafde8fb5-1"
    d="M16.77,2.45h1.91a0,0,0,0,1,0,0v0a4.77,4.77,0,0,1-4.77,4.77H12a0,0,0,0,1,0,0v0A4.77,4.77,0,0,1,16.77,2.45Z"
    transform="translate(30.68 9.68) rotate(-180)"></path>
  <line class="cls-637a2287b95f902aafde8fb5-1" x1="12" y1="10.09" x2="12" y2="6.27"></line>
  <path class="cls-637a2287b95f902aafde8fb5-1"
    d="M7.3,14.06a4.77,4.77,0,0,1,9.47.8,4.21,4.21,0,0,1-.12,1.08"></path>
</svg>